<?xml version="1.0" encoding="utf-8"?>
<!-- Generator: Adobe Illustrator 16.0.0, SVG Export Plug-In . SVG Version: 6.00 Build 0)  -->
<!DOCTYPE svg PUBLIC "-//W3C//DTD SVG 1.1//EN" "http://www.w3.org/Graphics/SVG/1.1/DTD/svg11.dtd">
<svg version="1.1" id="Layer_1" xmlns="http://www.w3.org/2000/svg" xmlns:xlink="http://www.w3.org/1999/xlink" x="0px" y="0px"
	 width="960px" height="960px" viewBox="0 0 960 960" enable-background="new 0 0 960 960" xml:space="preserve">
<g>
	<path d="M459.189,642.637v-21.504c48.385-6.145,55.297-12.288,45.313-42.24s-25.344-71.425-42.24-118.273H298.676
		c-12.288,34.56-23.809,66.816-33.792,99.073c-16.896,48.384-9.984,56.064,47.616,61.44v21.504H145.843v-21.504
		c48.384-6.912,59.136-11.521,86.017-79.104l158.977-403.203l23.808-6.912c47.617,132.097,99.072,278.018,148.224,411.651
		c24.576,66.048,34.561,72.96,84.48,77.568v21.504H459.189z M383.925,231.754h-1.536c-24.576,66.048-49.152,132.865-72.192,195.841
		H451.51L383.925,231.754z"/>
</g>
<g>
	<path d="M793.633,219.809c-59.136,4.607-65.279,9.984-65.279,74.496v287.234c0,98.305-15.361,151.297-66.049,198.146
		c-12.015,10.955-32.683,14.281-45.201,19.592c-5.764,2.445-29.874,8.183-62.068,17.241c0,0-43.156,4.391-62.069,6.896
		c-39.21,5.195-52.104,6.293-61.108,2.102L424,809.621c7.858-3.929,48.837-2.671,85.362-9.414c0,0,61.71-7.975,78.922-13.507
		c17.213-5.532,29.553-10.221,32.237-13.094c18.271-19.556,29.252-43.838,34.104-71.49c6.912-36.864,8.447-81.409,8.447-145.921
		V294.305c0-64.512-6.145-69.889-68.353-74.496v-21.504h198.913V219.809z"/>
</g>
</svg>
